# xmcd CD database file
#
# Track frame offsets:
#	150
#	32525
#	102992
#	130307
#	156565
#	179915
#
# Disc length: 3304 seconds
#
# Revision: 6
# Processed by: cddbd v1.5PL3 Copyright (c) Steve Scherf et al.
# Submitted via: ACXtractor (MTCDDB.DLL V2003.12.21)
#
DISCID=530ce606
DTITLE=Van Morrison - Common One
DYEAR=1980
DGENRE=Jazz
TTITLE0=Haunts Of Ancient Peace
TTITLE1=Summertime In England
TTITLE2=Satisfied
TTITLE3=Wild Honey
TTITLE4=Spirit
TTITLE5=When Heart Is Open
EXTD=Recorded at Super Bear Studios in the south of France\n(Feb 11 through Fe
EXTD=b 19, 1980) YEAR: 1980 ID3G:   8
EXTT0=
EXTT1=
EXTT2=
EXTT3=
EXTT4=
EXTT5=
PLAYORDER=
